<svg xmlns="http://www.w3.org/2000/svg" version="1.0" viewBox="-2.9 -1 291.3 406.9" style="fill:#000" aria-label="Simple Bright Hand Drawn Rosette"><path d="M253 384.2c-12.3-3.9-46.3-23.1-52.7-26.8-.5-.3-1.2 0-1.4.6-5.1 16-15.6 40.3-18.6 47.1-.3.8-1.4.8-1.8.1-15.8-30.2-26.1-86.6-30.3-113.4-7.8 50.7-32 100.2-38.2 112.3-.5.9-1.9.8-2.1-.3-2.3-9.6-9.9-34.5-11.9-40.8-.2-.7-1.1-1-1.7-.6-14.1 9.3-37.1 19.1-45.9 22.6-1 .4-2-.7-1.4-1.6 13-22 52.1-130.3 53.6-134.4 0-.1 0-.2.1-.2 4.4-38.7 43-64 49.2-2 13.9-15.4 47.5-9.1 50.6 8.6 4 22.9 46.8 113.2 53.6 127.5.5.8-.3 1.6-1.1 1.3z" style="fill:#09c49d"/><path d="M168.3.4c13.5 3.5 8.7 22.1 8.7 22.1 1.5-11.5 8.2-20.4 19.7-17.6 3.5.9 5.2 3.3 5.9 6.3.9 4 5.4 6.1 9 4.4 2.9-1.4 6.3-1.7 9.9.1 4.4 2.3 5.5 6.5 5.2 10.8-.3 4.4 3.8 7.7 8.1 6.6 7.5-1.9 14.6.7 18.1 7.4 2.1 4 1.5 8-.1 11.6-1.9 4.2 1.2 8.8 5.8 8.9 6.4.2 12.9 2.1 14.2 8.6.9 4.3-.2 8.2-2 11.5-2.1 3.8.2 8.6 4.4 9.4 4.5.9 8.7 3.6 10.6 10 2.2 7.5-.8 12.7-4.9 16.2-3.3 2.8-3 7.9.6 10.3 3.6 2.3 6.5 5.9 6.6 11.6.3 14.8-16.6 14-16.6 14s16.6-1.8 16.6 14.3c0 6.7-3.6 10.5-7.9 12.6-3.6 1.8-4.6 6.6-2.1 9.7 2.4 3 4.2 7.3 3.8 13.3-.4 6.7-3.9 9.2-7.9 9.8-3.8.6-6.3 4.2-5.4 7.9.8 3.3.1 7.2-4.1 11.1-11.7 11-22-4.9-22-4.9s13.6 14 4.2 24c-3.4 3.6-7.1 4.1-10.5 3.4-4-.9-7.8 2.3-7.7 6.4.2 5.3-1.3 10.7-7.4 13.2-13.8 5.6-23-13.3-23-13.3s10.5 19.4-5.4 24.5c-6.7 2.1-11.7.7-15.3-1.7-3.3-2.2-7.9-1.1-9.5 2.6-1.7 3.9-4.8 7.5-10.2 7.9-4.5.3-7.4-1.6-9.1-4.1-2.3-3.2-6.8-3.6-9.7-.9-2.7 2.5-6.3 4.6-11.1 5-6 .5-9.1-3.3-10.6-7.6-1.4-3.8-6-5.3-9.5-3.2-4.1 2.5-9.7 4.4-16.7 3.1-8.1-1.6-10.3-7.7-10.4-13.2-.1-4.2-4.1-7.1-8.1-6-4.9 1.3-10.7 1.7-15.4-1.4-4.4-2.9-5.4-7.6-5.2-11.9.2-4.2-3.5-7.6-7.7-6.7-5.2 1-11.1.8-14.8-3.6-3.7-4.4-2.8-10.7-.8-16.1 1.5-4.1-1.5-8.5-5.8-8.6-5.4-.1-11.1-2.2-12.5-9.4-2.9-15 14.8-21.3 14.8-21.3S4 195.8 2.3 180.2c-.6-5.8 1.7-9.9 4.9-12.8 3.1-2.8 2.8-7.8-.7-10.1-3.1-2-5.6-5.1-6.5-9.9-2.6-14.5 18.1-15.1 18.1-15.1-14.5 1.3-21-9.8-16.4-19.3s20.4-6.6 20.4-6.6-14.8-1.9-11.7-15.5c1.4-6.3 6-9.3 10.6-10.7 3.6-1.1 5.5-5.2 3.9-8.6-1.4-3.2-1.8-7.3.8-12s6.7-6.2 10.8-6.3c4-.1 6.9-3.7 6.2-7.6-.7-4 .5-8.6 6.1-12.8 5.7-4.2 10.7-4.5 14.6-3.4 3.7 1.1 7.6-1.3 8.2-5.1.6-4.2 2.7-8.3 8.2-10.2C93.1 9.3 98 23.4 98 23.4s-5.5-15 8.7-18.9c5.8-1.6 9.7-.4 12.2 1.9 2.8 2.5 7.1 2.2 9.5-.8 2.2-2.7 5.3-4.8 9.8-4.5 4 .2 6.8 1.8 8.8 3.8 2.7 2.7 7.1 2.7 9.5-.3C159 1.4 162.8-1 168.3.4z" style="fill:#09c49d"/><path d="M152.3 19.7c0-.6 1-.6 1 0 .4 6.6.5 13.3.3 19.9 0 .6-1 .6-1 0 .2-6.6.1-13.3-.3-19.9zm-22.7 22c-.8-4.3-1.6-8.7-2.5-13-.1-.6-1.1-.4-1 .3.8 4.3 1.6 8.7 2.5 13 .1.6 1.1.4 1-.3zm-23.8 5.4c.2.6 1.1.4 1-.3-2.3-8.3-5.1-16.5-8.4-24.5-.2-.6-1.2-.3-1 .3 3.2 8 6 16.2 8.4 24.5zm-30-11.6c-.3-.5-1.2 0-.8.5 4 6.9 7.9 13.8 11.5 20.9.3.6 1.2.1.9-.5-3.7-7-7.5-14-11.6-20.9zm-12 39.4c-1.5-.5-2.7-2.2-3.8-3.3l-3.8-3.8c-2.4-2.4-4.8-4.8-7.3-7.2-.5-.5-1.2.3-.7.7 2.8 2.7 5.5 5.5 8.3 8.2 1.4 1.4 2.8 2.7 4.1 4.1.9.9 1.6 1.8 2.9 2.2.7.3.9-.7.3-.9zM51.3 93.8c.5.4 1-.5.5-.9-3.1-2.2-6.2-4.4-9.3-6.5-.5-.4-1 .5-.5.9 3.1 2.1 6.2 4.3 9.3 6.5zm-25.6 38.9c3.1-.5 6.1-.5 9.1-.3.8.1 9 .7 9 .5-.1.6.8.9 1 .3.1-.6 0-1-.5-1.3-.6-.4-2.1-.1-2.8-.1-1.1 0-2.3 0-3.4-.1-4.3-.2-8.4-.7-12.7.1-.6 0-.4 1 .3.9zm23.5 42.9c-6.4 2.5-12.8 5.1-19 8.1-.6.3-.1 1.1.5.9 6.1-2.9 12.4-5.5 18.7-8 .6-.2.4-1.2-.2-1zm-11.5-20.3c-5.6 1.1-11.4 2.2-16.8 4-.6.2-.3 1.2.3 1 5.4-1.8 11.2-2.9 16.8-4 .6-.2.4-1.1-.3-1zm23.8 52.8c-8.7 6.6-17.4 13.1-26.1 19.7-.5.4 0 1.3.5.9 8.7-6.6 17.4-13.1 26.1-19.7.5-.5 0-1.3-.5-.9zm15.8 18.8c-4 4.3-8.2 8.5-12.5 12.5-.5.4.2 1.1.7.7 4.3-4 8.5-8.2 12.5-12.5.5-.5-.2-1.2-.7-.7zm93.3 42.7c.1.6 1.1.4 1-.3-1.3-6.7-2.9-13.4-4.8-20-.2-.6-1.1-.4-1 .3 1.9 6.6 3.5 13.3 4.8 20zm-26.5-4.3c-.3-3.4-.4-6.8-.3-10.2 0-.6-1-.6-1 0 0 3.4.1 6.8.3 10.2 0 .6 1 .6 1 0zm-40.3-4.7c2.2-5.4 5-10.5 8.3-15.3.4-.5-.5-1-.9-.5-3.4 4.9-6.1 10-8.4 15.5-.2.6.7.9 1 .3zm100.7-31.3c-.6-.3-1.1.6-.5.9 5 2.5 9.6 5.7 13.5 9.7.5.5 1.2-.2.7-.7-4-4.1-8.6-7.4-13.7-9.9zm52.7-22.4c-7.5-4.7-14.8-9.6-21.8-14.9-.5-.4-1 .5-.5.9 7.1 5.3 14.3 10.3 21.8 14.9.5.3 1-.6.5-.9zm17.1-55.7c-10.5 1.2-21.1 1.2-31.7-.1-.6-.1-.6.9 0 1 10.5 1.3 21.1 1.3 31.7.1.6 0 .6-1 0-1zM210 74.4c6.5-14.1 13.6-27.9 21.3-41.3.3-.6-.5-1.1-.9-.5-7.6 13.5-14.7 27.3-21.3 41.3-.2.6.6 1.1.9.5zm38.8-10.7c-10.2 5.9-20.2 12.2-29.9 18.8-.5.4 0 1.2.5.9 9.8-6.6 19.7-12.9 29.9-18.8.6-.3.1-1.2-.5-.9zm-11.6 36.8c8.5-2.5 16.9-5.3 25.2-8.4.6-.2.3-1.2-.3-1-8.3 3.1-16.7 5.9-25.2 8.4-.6.2-.3 1.2.3 1zm3.6 22.8c-.6 0-.6 1 0 1 6.7-.3 13.3-.8 19.9-1.7.6-.1.6-1.1 0-1-6.6.9-13.2 1.4-19.9 1.7zm-36.4 144.6c0 6.6-4 12.9-10.3 15.1-5.6 1.9-13.8.6-16.9-4.9-.1-.4-.2-.7-.3-1.1-.1-.2-.2-.3-.3-.3-.2-.5-1-.4-1 .2.6 6.8-5 12.1-11.5 13-5.4.7-16.3-1.3-16.2-8.5 0-.6-.8-.7-1-.1-1.5 5.8-7 9.6-12.9 9.4-3-.1-5.9-1.1-8.3-2.7-2.4-1.6-4.1-3.9-6.1-5.9-1.5-1.4-2.9-2.2-4.4-2.6-.1-.1-.3-.1-.4-.1-8.4-1.9-17.6 8.5-26.2 4.3-.6-.3-1.1.6-.5.9 5.9 2.8 11.6-.5 17-2.7 2.8-1.1 6.1-2.2 9.1-1.6-2.6 8.5-5.6 16.9-8.9 25.2-.2.6.7.9 1 .3 3.4-8.3 6.3-16.7 8.9-25.2l1.5.6c2.8 1.5 4.5 4.5 6.9 6.5 7.4 6.1 19.7 5.1 23.6-4 .2.7.5 1.4.9 2v.1c0 2-.1 4-.5 6-.1.6.8.9 1 .3.3-1.7.5-3.4.5-5.2 3.5 3.5 10.3 4.7 14.6 4.2 6.3-.7 12-5.3 12.8-11.6 2.3 7.3 4.9 14.5 7.8 21.6.2.6 1.2.3 1-.3-2.7-6.5-5.1-13.1-7.2-19.8 3.8 3.8 10.5 4.9 15.6 3.4 7.2-2.1 11.8-9 11.8-16.3-.1-.9-1.1-.9-1.1-.2zm-34-213.8c2-8.3 4.3-16.6 6.7-24.8.2-.6-.8-.9-1-.3-2.4 8.2-4.7 16.5-6.7 24.8-.1.6.9.9 1 .3zm19.4 6.3c4.4-10.9 8.7-21.9 12.9-33 .2-.6-.7-.9-1-.3-4.2 11-8.5 22-12.9 33-.2.7.8.9 1 .3z" style="fill:#281c22"/><path d="M143.9 257.5c-60.5 0-109.5-49-109.5-109.5s49-109.5 109.5-109.5 109.5 49 109.5 109.5-49 109.5-109.5 109.5z" style="fill:#fff"/><path d="M143.9 240.9c-51.3 0-92.8-41.6-92.8-92.8s41.6-92.8 92.8-92.8 92.8 41.6 92.8 92.8-41.5 92.8-92.8 92.8z" stroke="#281C22" stroke-miterlimit="10" style="fill:none"/><g><path d="M205.4 202.8c.4-.5 1.1.2.7.7-13.1 15-31.8 24.4-51.6 26-.6.1-.6-.9 0-1 19.6-1.6 38-11 50.9-25.7zm3.5-2.9c1.9 0 1.9-3 0-3s-1.9 3 0 3z" style="fill:#000"/></g></svg>